<?xml version="1.0" standalone="no"?>
<!DOCTYPE svg PUBLIC "-//W3C//DTD SVG 20010904//EN"
 "http://www.w3.org/TR/2001/REC-SVG-20010904/DTD/svg10.dtd">
<svg version="1.0" xmlns="http://www.w3.org/2000/svg"
 width="617.000000pt" height="600.000000pt" viewBox="0 0 617.000000 600.000000"
 preserveAspectRatio="xMidYMid meet">

<g transform="translate(0.000000,600.000000) scale(0.100000,-0.100000)"
fill="#fff" stroke="none">
<path d="M2955 5985 c-188 -41 -371 -184 -453 -355 -68 -142 -86 -275 -57
-426 61 -318 357 -549 680 -531 340 19 605 286 623 628 15 308 -180 584 -478
673 -79 24 -230 29 -315 11z"/>
<path d="M770 4449 c-263 -19 -417 -90 -449 -206 -16 -57 -13 -84 14 -140 52
-104 141 -137 598 -218 120 -21 182 -50 182 -84 0 -65 -150 -98 -312 -70 -78
14 -123 47 -123 90 l0 29 -191 0 -192 0 5 -50 c8 -75 50 -136 123 -176 91 -49
181 -65 405 -71 365 -9 587 47 668 170 22 33 27 52 27 103 0 53 -4 69 -30 105
-69 99 -129 119 -588 203 -139 26 -197 57 -182 98 12 31 51 42 157 46 130 5
201 -13 227 -59 l16 -29 178 0 177 0 0 30 c0 79 -75 155 -184 189 -122 38
-339 54 -526 40z"/>
<path d="M1690 4000 l0 -440 538 2 537 3 3 92 3 93 -343 2 -343 3 0 85 0 85
303 3 302 2 0 90 0 90 -302 2 -303 3 -3 68 -3 67 331 0 330 0 0 95 0 95 -525
0 -525 0 0 -440z"/>
<path d="M2930 4000 l0 -440 190 0 190 0 2 293 3 294 80 -92 c44 -50 159 -182
255 -293 l175 -202 258 0 257 0 0 440 0 440 -190 0 -190 0 -2 -291 -3 -291
-260 290 -260 291 -252 0 -253 1 0 -440z"/>
<path d="M4833 4238 c-234 -339 -429 -621 -448 -650 l-17 -28 195 0 195 0 47
80 47 80 308 0 309 0 43 -80 43 -80 218 0 c172 0 217 3 211 13 -5 6 -109 165
-232 352 -123 187 -249 379 -280 427 l-57 88 -221 0 -220 0 -141 -202z m432
-163 c48 -82 90 -153 92 -157 2 -5 -82 -8 -186 -8 -114 0 -191 4 -191 9 0 9
46 85 157 260 19 29 36 52 38 50 1 -2 42 -71 90 -154z"/>
<path d="M0 3105 l0 -235 888 0 887 0 52 -24 c90 -42 106 -111 50 -218 -18
-35 -128 -227 -244 -428 -116 -201 -294 -509 -395 -685 -102 -176 -238 -411
-302 -523 -64 -112 -116 -207 -114 -211 2 -4 79 -79 172 -166 l169 -160 16 24
c18 27 107 181 446 771 131 228 297 519 370 645 417 725 825 1437 825 1441 0
2 -634 4 -1410 4 l-1410 0 0 -235z"/>
<path d="M3320 3336 c0 -3 188 -324 418 -713 230 -389 553 -935 717 -1213 164
-278 356 -603 427 -723 l129 -218 31 26 c17 15 94 86 170 159 l139 132 -317
545 c-174 299 -418 720 -542 934 l-227 390 0 62 c0 73 20 107 81 138 38 19 61
20 932 23 l892 2 0 230 0 230 -1425 0 c-784 0 -1425 -2 -1425 -4z"/>
<path d="M3035 2782 c-22 -37 -372 -632 -777 -1322 l-738 -1255 202 -102 c154
-76 206 -98 214 -90 7 7 107 174 224 372 117 198 277 468 355 600 78 132 208
353 290 490 81 138 155 258 164 269 60 68 187 62 239 -11 11 -16 131 -215 267
-443 136 -228 365 -612 509 -852 l260 -437 196 101 c107 55 201 106 208 113
12 10 -11 54 -131 251 -79 132 -431 714 -782 1294 -351 580 -643 1063 -649
1072 -11 15 -17 9 -51 -50z"/>
</g>
</svg>
