<?xml version="1.0" standalone="no"?>
<!DOCTYPE svg PUBLIC "-//W3C//DTD SVG 20010904//EN"
 "http://www.w3.org/TR/2001/REC-SVG-20010904/DTD/svg10.dtd">
<svg version="1.0" xmlns="http://www.w3.org/2000/svg"
 width="512.000000pt" height="169.000000pt" viewBox="0 0 512.000000 169.000000"
 preserveAspectRatio="xMidYMid meet">

<g transform="translate(0.000000,169.000000) scale(0.100000,-0.100000)"
fill="#fff" stroke="none">
<path d="M250 1444 c-120 -27 -173 -64 -223 -158 -16 -31 -22 -59 -22 -116 0
-65 4 -82 29 -128 33 -59 88 -108 144 -128 55 -19 4709 -19 4764 0 56 20 111
69 144 128 25 45 29 64 29 128 0 64 -4 83 -29 128 -29 51 -71 92 -126 123 -21
12 -333 15 -1960 21 -1064 4 -2104 9 -2310 12 -305 4 -387 2 -440 -10z m1840
-81 c-1 -16 -5 -86 -10 -158 -5 -71 -5 -158 -1 -192 l7 -63 -55 0 -56 0 1 173
c1 94 2 193 3 220 l1 47 55 0 c53 0 55 -1 55 -27z m366 -19 c-3 -26 -6 -125
-6 -220 l0 -174 -61 0 c-54 0 -60 2 -54 18 4 9 11 85 16 167 5 83 11 174 14
203 l6 52 46 0 46 0 -7 -46z m2479 22 c91 -42 131 -112 123 -217 -5 -73 -43
-133 -108 -169 l-45 -25 -1156 -3 -1157 -2 -11 31 c-8 23 -8 82 1 220 l12 189
1146 0 1145 0 50 -24z m-2792 -303 c2 -45 0 -80 -5 -77 -4 3 -7 47 -7 97 1
106 6 98 12 -20z m-1928 -93 c13 -6 15 -9 5 -9 -8 0 -22 4 -30 9 -18 12 -2 12
25 0z"/>
</g>
</svg>
